<?xml version="1.0"?>
<svg xmlns="http://www.w3.org/2000/svg" xmlns:xlink="http://www.w3.org/1999/xlink" xmlns:svgjs="http://svgjs.com/svgjs" version="1.1" width="512" height="512" x="0" y="0" viewBox="0 0 512 512" style="enable-background:new 0 0 512 512" xml:space="preserve" class=""><g><path xmlns="http://www.w3.org/2000/svg" d="m499.769531 447.628906c-50.511719-16.179687-101.75-22.894531-152.292969-19.972656-28.171874 1.632812-51.101562 6.027344-67.3125 10.148438l27.371094-48.628907c.003906-.003906.003906-.011719.007813-.015625.152343-.273437.289062-.558594.40625-.855468.015625-.03125.023437-.0625.035156-.09375.097656-.246094.179687-.5.25-.757813.015625-.066406.035156-.132813.050781-.199219.058594-.238281.101563-.480468.136719-.726562.007813-.058594.019531-.117188.027344-.175782.03125-.28125.050781-.5625.050781-.851562v-279.5c0-4.144531-3.359375-7.5-7.5-7.5s-7.5 3.355469-7.5 7.5v271.996094h-15v-314.996094h15v10.832031c0 4.144531 3.359375 7.5 7.5 7.5s7.5-3.355469 7.5-7.5v-50.296875c0-12.976562-10.558594-23.535156-23.535156-23.535156h-57.929688c-12.976562 0-23.535156 10.558594-23.535156 23.535156v361.964844c0 .289062.019531.574219.050781.855469.007813.054687.019531.113281.027344.171875.035156.246094.078125.488281.136719.726562.015625.066406.035156.132813.050781.199219.070313.257813.152344.511719.25.757813.011719.03125.019531.0625.035156.097656.117188.292968.253907.578125.40625.851562.003907.003906.003907.011719.007813.015625l27.378906 48.644531c-27.195312-6.898437-73.820312-14.703124-132.367188-8.625-4.121093.425782-7.113281 4.113282-6.6875 8.234376.425782 4.121093 4.109376 7.109374 8.234376 6.683593 68.652343-7.125 119.957031 5.503907 141.253906 12.242188l4.800781 8.53125c.019531.035156.039063.070312.058594.105469.433593.742187.941406 1.40625 1.496093 2.007812h-231.03125c-1.4375 0-2.601562-1.164062-2.601562-2.601562 0-.703126.273438-1.226563.488281-1.519532.234375-.324218.65625-.753906 1.320313-.96875 17.417968-5.578125 35.179687-10.046875 52.796875-13.28125 4.074219-.75 6.769531-4.65625 6.019531-8.730468-.746094-4.074219-4.65625-6.769532-8.730469-6.023438-18.242187 3.351562-36.632812 7.980469-54.667969 13.753906-3.554687 1.144532-6.609374 3.347656-8.847656 6.398438-2.210937 3.035156-3.378906 6.621094-3.378906 10.371094 0 4.480468 1.695312 8.558593 4.460938 11.667968-2.800782 3.753906-4.460938 8.402344-4.460938 13.433594 0 12.40625 10.09375 22.5 22.5 22.5h467c12.40625 0 22.5-10.09375 22.5-22.5 0-5.03125-1.660156-9.679688-4.460938-13.433594 2.765626-3.109375 4.460938-7.1875 4.460938-11.667968 0-7.683594-4.914062-14.421876-12.230469-16.769532zm-4.582031 14.28125c1.085938.347656 1.8125 1.347656 1.8125 2.488282 0 1.4375-1.167969 2.601562-2.601562 2.601562h-231.035157c.035157-.035156.0625-.074219.097657-.109375.511718-.574219.992187-1.199219 1.398437-1.898437.011719-.019532.023437-.039063.035156-.058594.007813-.015625.019531-.03125.027344-.046875l3.597656-6.394531 1.203125-2.140626c27.984375-8.832031 114.972656-29.828124 225.464844 5.558594zm-261.6875-83.914062h-15v-314.996094h15zm54.671875 15.003906-18.128906 32.207031h-28.085938l-18.128906-32.207031zm-37.769531 47.207031h11.195312l-5.597656 9.945313zm13.097656-62.210937h-15v-314.996094h15zm-45-354.460938c0-4.707031 3.828125-8.535156 8.535156-8.535156h57.929688c4.707031 0 8.535156 3.828125 8.535156 8.535156v24.464844h-75zm271 473.464844h-467c-4.136719 0-7.5-3.363281-7.5-7.5s3.363281-7.5 7.5-7.5h467c4.136719 0 7.5 3.363281 7.5 7.5s-3.363281 7.5-7.5 7.5zm0 0" fill="#ffffff" data-original="#000000" style="" class=""/><path xmlns="http://www.w3.org/2000/svg" d="m41.636719 181.207031h26.480469c2.03125 14.925781 7.601562 25.929688 16.609374 32.757813 7.742188 5.871094 16.570313 7.53125 24.089844 7.53125 4.648438 0 8.796875-.636719 11.871094-1.304688 3.898438-.847656 6.675781-4.359375 6.601562-8.347656-.074218-3.988281-2.976562-7.394531-6.90625-8.097656-3.046874-.546875-5.109374-1.835938-6.488281-4.0625-2.945312-4.746094-2.546875-12.78125-1.644531-18.480469h34.613281c22.957031 0 41.636719-18.675781 41.636719-41.636719v-82.210937c0-22.957031-18.675781-41.636719-41.636719-41.636719h-105.226562c-22.957031.003906-41.636719 18.679688-41.636719 41.636719v82.214843c0 22.957032 18.679688 41.636719 41.636719 41.636719zm-26.636719-123.851562c0-14.6875 11.949219-26.636719 26.636719-26.636719h105.226562c14.6875 0 26.636719 11.949219 26.636719 26.636719v82.214843c0 14.6875-11.949219 26.636719-26.636719 26.636719h-40.664062c-3.324219 0-6.25 2.1875-7.191407 5.378907-.628906 2.121093-5.628906 20.152343.800782 33.5625-2.089844-.695313-4.132813-1.710938-6.019532-3.136719-6.722656-5.097657-10.550781-14.769531-11.378906-28.75-.234375-3.960938-3.515625-7.058594-7.484375-7.058594h-33.289062c-14.6875.003906-26.636719-11.945313-26.636719-26.632813zm0 0" fill="#ffffff" data-original="#000000" style="" class=""/><path xmlns="http://www.w3.org/2000/svg" d="m470.363281 203.066406h-22.238281c-4.140625 0-7.5 3.359375-7.5 7.5 0 4.144532 3.359375 7.5 7.5 7.5h22.238281c14.6875 0 26.636719 11.949219 26.636719 26.636719v82.210937c0 14.6875-11.949219 26.640626-26.636719 26.640626h-33.289062c-3.96875 0-7.25 3.09375-7.484375 7.054687-.828125 13.980469-4.660156 23.652344-11.378906 28.75-1.886719 1.425781-3.929688 2.441406-6.023438 3.136719 6.433594-13.410156 1.429688-31.441406.804688-33.5625-.941407-3.191406-3.871094-5.378906-7.191407-5.378906h-40.664062c-14.6875 0-26.636719-11.949219-26.636719-26.640626v-82.210937c0-14.6875 11.949219-26.636719 26.636719-26.636719h50.988281c4.140625 0 7.5-3.355468 7.5-7.5 0-4.140625-3.359375-7.5-7.5-7.5h-50.988281c-22.957031 0-41.636719 18.679688-41.636719 41.636719v82.210937c0 22.960938 18.675781 41.640626 41.636719 41.640626h34.613281c.902344 5.699218 1.300781 13.734374-1.644531 18.476562-1.378907 2.226562-3.441407 3.519531-6.488281 4.0625-3.929688.707031-6.835938 4.113281-6.90625 8.105469-.074219 3.988281 2.707031 7.496093 6.601562 8.339843 3.074219.667969 7.222656 1.304688 11.871094 1.304688 7.515625 0 16.347656-1.660156 24.085937-7.53125 9.007813-6.828125 14.582031-17.828125 16.613281-32.757812h26.480469c22.957031 0 41.636719-18.679688 41.636719-41.636719v-82.210938c0-22.960937-18.679688-41.640625-41.636719-41.640625zm0 0" fill="#ffffff" data-original="#000000" style="" class=""/><path xmlns="http://www.w3.org/2000/svg" d="m382.65625 276.464844c12.960938 0 23.5-10.542969 23.5-23.5 0-12.960938-10.539062-23.5-23.5-23.5-12.957031 0-23.5 10.539062-23.5 23.5 0 12.957031 10.542969 23.5 23.5 23.5zm0-32c4.6875 0 8.5 3.8125 8.5 8.5 0 4.683594-3.8125 8.5-8.5 8.5-4.683594 0-8.5-3.816406-8.5-8.5 0-4.6875 3.816406-8.5 8.5-8.5zm0 0" fill="#ffffff" data-original="#000000" style="" class=""/><path xmlns="http://www.w3.org/2000/svg" d="m450.65625 296.464844c-12.957031 0-23.5 10.539062-23.5 23.5 0 12.957031 10.542969 23.5 23.5 23.5 12.960938 0 23.5-10.542969 23.5-23.5 0-12.960938-10.539062-23.5-23.5-23.5zm0 32c-4.683594 0-8.5-3.816406-8.5-8.5 0-4.6875 3.816406-8.5 8.5-8.5 4.6875 0 8.5 3.8125 8.5 8.5 0 4.683594-3.8125 8.5-8.5 8.5zm0 0" fill="#ffffff" data-original="#000000" style="" class=""/><path xmlns="http://www.w3.org/2000/svg" d="m457.355469 235.160156-92 92c-2.929688 2.929688-2.929688 7.675782 0 10.605469 1.464843 1.464844 3.382812 2.195313 5.300781 2.195313 1.921875 0 3.839844-.730469 5.304688-2.195313l92-92c2.929687-2.929687 2.929687-7.675781 0-10.605469-2.929688-2.929687-7.675782-2.929687-10.605469 0zm0 0" fill="#ffffff" data-original="#000000" style="" class=""/><path xmlns="http://www.w3.org/2000/svg" d="m94 151.5c29.5 0 53.5-24 53.5-53.5 0-9.558594-2.554688-18.941406-7.382812-27.136719-2.101563-3.5625-6.695313-4.753906-10.265626-2.65625l-28.351562 16.679688v-32.886719c0-4.144531-3.359375-7.5-7.5-7.5-29.5 0-53.5 24-53.5 53.5s24 53.5 53.5 53.5zm-7.5-91.265625v37.765625c0 2.691406 1.441406 5.175781 3.777344 6.511719 2.332031 1.332031 5.207031 1.316406 7.523437-.046875l32.554688-19.152344c1.414062 4.054688 2.144531 8.34375 2.144531 12.6875 0 21.230469-17.269531 38.5-38.5 38.5s-38.5-17.269531-38.5-38.5c0-18.664062 13.347656-34.269531 31-37.765625zm0 0" fill="#ffffff" data-original="#000000" style="" class=""/></g></svg>
