<?xml version="1.0"?>
<svg xmlns="http://www.w3.org/2000/svg" xmlns:xlink="http://www.w3.org/1999/xlink" xmlns:svgjs="http://svgjs.com/svgjs" version="1.1" width="512" height="512" x="0" y="0" viewBox="0 0 512.002 512.002" style="enable-background:new 0 0 512 512" xml:space="preserve" class=""><g><g xmlns="http://www.w3.org/2000/svg"><path d="m505.322 381.493c-3.183-2.122-97.849-65.245-101.499-67.68-4.939-3.292-11.537-3.405-16.644 0l-14.484 9.658-106.772-29.618v-39.57c20.301-18.633 33.048-45.371 33.048-75.033v-164.249c0-8.284-6.716-15-15-15h-130.294c-32.428 0-58.431 27.263-58.431 59.431v119.818c0 29.662 12.748 56.4 33.048 75.034v39.594l-117.334 32.811c-6.48 1.812-10.96 7.717-10.96 14.446v155.866c0 8.284 6.716 15 15 15h456.625c8.284 0 15-6.716 15-15v-91.917l2.053 1.369c6.892 4.595 16.205 2.734 20.802-4.158 4.596-6.893 2.734-16.207-4.158-20.802zm-165.6-36.036-54.043 36.036c-6.893 4.596-8.754 13.909-4.158 20.801 4.608 6.911 13.925 8.743 20.802 4.159l2.053-1.369v76.917h-47.678l-9.303-58.515c14.069-84.416 9.985-58.804 15.905-99.228zm-120.232 62.972h-44.765l-6.697-40.179h58.158zm-44.668 30h44.571l6.927 43.572h-58.425zm-21.145-408.428h115.293v49.479h-143.724v-20.048c0-15.954 13.02-29.431 28.431-29.431zm-28.431 79.479h143.724v69.769c0 22.837-10.72 43.204-27.378 56.376-25.632 20.356-62.58 20.954-88.989-.017-16.646-13.173-27.357-33.533-27.357-56.359zm110.676 163.94v30.745l-4.992 34.085h-67.645l-4.991-34.085v-30.745c24.781 10.252 52.809 10.268 77.628 0zm-205.922 79.096 100.921-28.222c5.759 39.325 2.315 17.686 15.9 99.192l-9.303 58.515h-107.518zm426.625 129.485h-46.125v-25c0-8.284-6.716-15-15-15s-15 6.716-15 15v25h-46.125v-96.918l61.125-40.76 61.125 40.76z" fill="#ffffff" data-original="#000000" style=""/></g></g></svg>
